<svg id="Layer_2" data-name="Layer 2" xmlns="http://www.w3.org/2000/svg" width="126.5" height="127.5" viewBox="0 0 126.5 127.5">
  <title>oct_icon</title>
  <path d="M108.5,20L62,0,17.5,20,0,63.5,17.5,108l45,19.5,45.8-19.7,18.2-44.3ZM59.3,91.7V106H31.7v-12Q44,60.6,46.3,52.7t2.3-12.4a14,14,0,0,0-.7-5.1,2.3,2.3,0,0,0-2.1-1.7q-1.4,0-2.1,1.9t-0.7,7.4v8H31.7V47.7a109.8,109.8,0,0,1,.4-11.1,27.2,27.2,0,0,1,2.1-8,14.2,14.2,0,0,1,4.5-5.9,10.8,10.8,0,0,1,6.6-2,12.5,12.5,0,0,1,11.4,6.2q3.8,6.2,3.8,15.6a58.4,58.4,0,0,1-2.2,15.2q-2.2,8-12.8,34H59.3ZM94.2,79.5a118.1,118.1,0,0,1-.5,13.1,25,25,0,0,1-2.2,7.7,12.6,12.6,0,0,1-4.7,5.4,13.5,13.5,0,0,1-7.3,1.9,13.8,13.8,0,0,1-8.6-2.8,15.3,15.3,0,0,1-5.3-8.4Q64,90.8,64,79.1V74.6H76.6v5.2q0,8.1.3,11.5t2.4,3.4a1.7,1.7,0,0,0,1.5-1,4.5,4.5,0,0,0,.6-2.1q0-1.1.1-9.9V65.1a22.9,22.9,0,0,0-.6-6.4A2.1,2.1,0,0,0,79,57a1.7,1.7,0,0,0-1.5.9,4.8,4.8,0,0,0-.8,1.9,37.5,37.5,0,0,0-.2,4.7H64.2l0.5-42.2h27V35.6H76.1V49.9q2.9-5.7,7.5-5.7A8.5,8.5,0,0,1,91.5,49q2.7,4.8,2.7,18.6v12Z" style="fill: #900"/>
</svg>
