<svg id="Layer_1" data-name="Layer 1" xmlns="http://www.w3.org/2000/svg" width="126.5" height="127.5" viewBox="0 0 126.5 127.5">
  <title>easy-to-prepare</title>
  <path d="M108.5,20L62,0,17.5,20,0,63.5,17.5,108l45,19.5,45.8-19.7,18.2-44.3Zm-46,87.4c-4.1.6-7.4-1.4-8-5.3C53.4,95.1,56.4,88.8,59,82c2.7,12.7,7.8,13.3,8.2,18.7S65.6,107,62.5,107.4ZM89.1,88.9A33,33,0,0,1,84.6,100c-2.7,4.2-7.2,6-12.7,5.3C77.7,95,72.9,87.7,65.7,81c-4-3.7-5.3-8.3-5.4-13.5,0-1.7,0-3.3,0-5.7C48.9,71,46.3,82.5,48.5,95.6,35,91.2,29.1,63.9,38.2,48.7c2.8,11.5,11.2,11.1,15.1,6,6.9-9,5-34.2,5-34.3,3.8,2.1,6.7,5.8,8.9,8.8,8.2,11.1,11,23.8,10.5,37.4-0.2,5.1-.8,10.2-0.9,15.3s4.3,4.7,5.8,1.7,2-5.4,3.2-8,2.8-5,5.7-5.3C90.7,76.6,90.4,82.9,89.1,88.9Z" style="fill: #900"/>
</svg>
