<svg id="Layer_3" data-name="Layer 3" xmlns="http://www.w3.org/2000/svg" width="126.5" height="127.5" viewBox="0 0 126.5 127.5">
  <title>oct_icon</title>
  <path d="M108.5,20L62,0,17.5,20,0,63.5,17.5,108l45,19.5,45.8-19.7,18.2-44.3ZM65.3,96.5v10.9H58.7V96.8c-6.1-.1-12.4-2-16.1-4.6l2.5-7a28,28,0,0,0,15.1,4.5c7.5,0,12.5-4.3,12.5-10.3s-4.1-9.4-11.9-12.5c-10.7-4.2-17.4-9-17.4-18.2s6.2-15.4,15.9-16.9V21H66V31.2a28.1,28.1,0,0,1,13.7,3.7L77,41.9a25.4,25.4,0,0,0-13.3-3.6c-8.1,0-11.2,4.8-11.2,9s3.9,8.2,13,12c10.8,4.4,16.3,9.9,16.3,19.3S76.2,94.7,65.3,96.5Z" style="fill: #900"/>
</svg>
