<?xml version="1.0" encoding="utf-8"?>
<!-- Generator: Adobe Illustrator 19.0.0, SVG Export Plug-In . SVG Version: 6.00 Build 0)  -->
<svg version="1.1" id="Layer_1" xmlns="http://www.w3.org/2000/svg" xmlns:xlink="http://www.w3.org/1999/xlink" x="0px" y="0px"
	 viewBox="-255 338 100 81" style="enable-background:new -255 338 100 81;" xml:space="preserve">
<style type="text/css">
	.st0{fill:#FFFFFF;}
</style>
<path class="st0" d="M-223.2,386.7c11.9,14.4,40.9,28.2,47.9,25.1c7-3.1,8.5-9.8,8.2-12.9s-16.2-12.6-20.2-14.4
	c-4-1.8-8.6,4-10.8,6.5c-2.3,2.4-11.1-4.9-14.9-8.6c0,0-10-11.2-7.7-13.6s8-7.2,6-11.1c-2-3.9-12.1-19.5-15.3-19.7
	c-3.1-0.2-9.7,1.6-12.5,8.7c-2.8,7.1,10.6,34.2,25.5,45.5"/>
</svg>
