<?xml version="1.0" encoding="utf-8"?>
<!-- Generator: Adobe Illustrator 16.0.0, SVG Export Plug-In . SVG Version: 6.00 Build 0)  -->
<!DOCTYPE svg PUBLIC "-//W3C//DTD SVG 1.1//EN" "http://www.w3.org/Graphics/SVG/1.1/DTD/svg11.dtd">
<svg version="1.1" xmlns="http://www.w3.org/2000/svg" xmlns:xlink="http://www.w3.org/1999/xlink" x="0px" y="0px"
	 width="794.557px" height="179.979px" viewBox="0 0 794.557 179.979" enable-background="new 0 0 794.557 179.979"
	 xml:space="preserve">
<g id="Layer_2" display="none">
	<g display="inline">
		
			<rect x="-64.223" y="-102.013" transform="matrix(0.9632 0.2687 -0.2687 0.9632 35.6744 22.3202)" fill="#E47600" width="1.025" height="487.022"/>
		
			<rect x="-56.875" y="-101.305" transform="matrix(0.9632 0.2687 -0.2687 0.9632 36.1348 20.372)" fill="#E47600" width="1.025" height="487.022"/>
		
			<rect x="-49.529" y="-100.589" transform="matrix(0.963 0.2696 -0.2696 0.963 36.7104 18.5032)" fill="#E47600" width="1.025" height="487.013"/>
		
			<rect x="-42.181" y="-99.887" transform="matrix(0.9632 0.2687 -0.2687 0.9632 37.0563 16.4763)" fill="#E47600" width="1.025" height="487.024"/>
		
			<rect x="-34.834" y="-99.176" transform="matrix(0.9632 0.2687 -0.2687 0.9632 37.5172 14.5284)" fill="#E47600" width="1.025" height="487.022"/>
		
			<rect x="-27.499" y="-98.453" transform="matrix(0.9633 0.2684 -0.2684 0.9633 37.9441 12.5672)" fill="#E47600" width="1.026" height="486.996"/>
		
			<rect x="-20.154" y="-97.736" transform="matrix(0.9631 0.2693 -0.2693 0.9631 38.5288 10.6748)" fill="#E47600" width="1.026" height="486.988"/>
		
			<rect x="-12.797" y="-97.023" transform="matrix(0.9632 0.2687 -0.2687 0.9632 38.9016 8.6862)" fill="#E47600" width="1.025" height="486.989"/>
		
			<rect x="-5.445" y="-96.341" transform="matrix(0.9633 0.2686 -0.2686 0.9633 39.3419 6.7308)" fill="#E47600" width="1.025" height="487.023"/>
		
			<rect x="1.901" y="-95.631" transform="matrix(0.9632 0.2687 -0.2687 0.9632 39.8207 4.7889)" fill="#E47600" width="1.025" height="487.022"/>
		
			<rect x="9.236" y="-94.896" transform="matrix(0.963 0.2694 -0.2694 0.963 40.398 2.8686)" fill="#E47600" width="1.026" height="486.987"/>
		
			<rect x="16.596" y="-94.205" transform="matrix(0.9629 0.2697 -0.2697 0.9629 40.898 0.9179)" fill="#E47600" width="1.025" height="487.013"/>
		
			<rect x="23.931" y="-93.484" transform="matrix(0.9633 0.2683 -0.2683 0.9633 41.1461 -1.058)" fill="#E47600" width="1.026" height="486.996"/>
		
			<rect x="31.29" y="-92.795" transform="matrix(0.9632 0.2687 -0.2687 0.9632 41.6632 -3.003)" fill="#E47600" width="1.025" height="487.022"/>
		
			<rect x="38.626" y="-92.064" transform="matrix(0.9633 0.2684 -0.2684 0.9633 42.0858 -4.9484)" fill="#E47600" width="1.026" height="486.996"/>
		
			<rect x="45.983" y="-91.349" transform="matrix(0.9632 0.2688 -0.2688 0.9632 42.6078 -6.8984)" fill="#E47600" width="1.025" height="486.989"/>
		
			<rect x="53.331" y="-90.668" transform="matrix(0.9632 0.2687 -0.2687 0.9632 43.0451 -8.8466)" fill="#E47600" width="1.025" height="487.022"/>
		
			<rect x="60.678" y="-89.958" transform="matrix(0.9632 0.2687 -0.2687 0.9632 43.506 -10.7943)" fill="#E47600" width="1.025" height="487.022"/>
		
			<rect x="68.015" y="-89.225" transform="matrix(0.9633 0.2684 -0.2684 0.9633 43.9265 -12.733)" fill="#E47600" width="1.026" height="486.996"/>
		
			<rect x="75.373" y="-88.539" transform="matrix(0.9632 0.2687 -0.2687 0.9632 44.4276 -14.6904)" fill="#E47600" width="1.025" height="487.022"/>
		
			<rect x="82.72" y="-87.83" transform="matrix(0.9632 0.2687 -0.2687 0.9632 44.8882 -16.6382)" fill="#E47600" width="1.025" height="487.022"/>
		
			<rect x="90.069" y="-87.092" transform="matrix(0.9632 0.2688 -0.2688 0.9632 45.3744 -18.5919)" fill="#E47600" width="1.025" height="486.988"/>
		
			<rect x="97.402" y="-86.407" transform="matrix(0.9631 0.2693 -0.2693 0.9631 45.9275 -20.5653)" fill="#E47600" width="1.026" height="487.021"/>
		
			<rect x="104.76" y="-85.703" transform="matrix(0.9632 0.2687 -0.2687 0.9632 46.2701 -22.4818)" fill="#E47600" width="1.025" height="487.023"/>
		
			<rect x="112.108" y="-84.994" transform="matrix(0.9632 0.2687 -0.2687 0.9632 46.7309 -24.4298)" fill="#E47600" width="1.025" height="487.024"/>
		
			<rect x="119.458" y="-84.262" transform="matrix(0.9635 0.2677 -0.2677 0.9635 47.0002 -26.3019)" fill="#E47600" width="1.025" height="486.997"/>
		
			<rect x="126.806" y="-83.545" transform="matrix(0.9632 0.2687 -0.2687 0.9632 47.6558 -28.3262)" fill="#E47600" width="1.025" height="486.989"/>
		
			<rect x="134.149" y="-82.866" transform="matrix(0.9632 0.2687 -0.2687 0.9632 48.1129 -30.2735)" fill="#E47600" width="1.025" height="487.022"/>
		
			<rect x="141.484" y="-82.151" transform="matrix(0.9633 0.2686 -0.2686 0.9633 48.5499 -32.206)" fill="#E47600" width="1.025" height="487.022"/>
		
			<rect x="148.849" y="-81.417" transform="matrix(0.9632 0.2687 -0.2687 0.9632 49.0381 -34.1702)" fill="#E47600" width="1.025" height="486.989"/>
		
			<rect x="156.177" y="-80.73" transform="matrix(0.963 0.2694 -0.2694 0.963 49.6533 -36.198)" fill="#E47600" width="1.026" height="487.02"/>
		
			<rect x="163.537" y="-80.03" transform="matrix(0.9633 0.2686 -0.2686 0.9633 49.9296 -38.0504)" fill="#E47600" width="1.025" height="487.023"/>
		
			<rect x="170.877" y="-79.288" transform="matrix(0.9633 0.2683 -0.2683 0.9633 50.3428 -39.9641)" fill="#E47600" width="1.026" height="486.996"/>
		
			<rect x="178.223" y="-78.578" transform="matrix(0.9633 0.2684 -0.2684 0.9633 50.8293 -41.9254)" fill="#E47600" width="1.026" height="486.996"/>
		
			<rect x="185.578" y="-77.901" transform="matrix(0.9632 0.2687 -0.2687 0.9632 51.3378 -43.9086)" fill="#E47600" width="1.025" height="487.022"/>
		
			<rect x="192.934" y="-77.16" transform="matrix(0.9632 0.2687 -0.2687 0.9632 51.803 -45.8584)" fill="#E47600" width="1.025" height="486.989"/>
		
			<rect x="200.269" y="-76.44" transform="matrix(0.963 0.2694 -0.2694 0.963 52.4354 -47.9199)" fill="#E47600" width="1.026" height="486.987"/>
		
			<rect x="207.629" y="-75.741" transform="matrix(0.9632 0.2688 -0.2688 0.9632 52.7524 -49.7742)" fill="#E47600" width="1.025" height="486.988"/>
		
			<rect x="214.96" y="-75.03" transform="matrix(0.9633 0.2683 -0.2683 0.9633 53.1018 -51.6356)" fill="#E47600" width="1.026" height="486.996"/>
		
			<rect x="222.313" y="-74.355" transform="matrix(0.9632 0.2687 -0.2687 0.9632 53.6412 -53.6482)" fill="#E47600" width="1.025" height="487.022"/>
		
			<rect x="229.655" y="-73.609" transform="matrix(0.9633 0.2684 -0.2684 0.9633 54.0506 -55.5489)" fill="#E47600" width="1.026" height="486.996"/>
		
			<rect x="237.002" y="-72.9" transform="matrix(0.9633 0.2683 -0.2683 0.9633 54.4814 -57.4716)" fill="#E47600" width="1.026" height="486.996"/>
		
			<rect x="244.341" y="-72.215" transform="matrix(0.9631 0.2693 -0.2693 0.9631 55.1785 -59.6133)" fill="#E47600" width="1.026" height="487.02"/>
		
			<rect x="251.705" y="-71.456" transform="matrix(0.9635 0.2675 -0.2675 0.9635 55.2204 -61.2084)" fill="#E47600" width="1.026" height="486.972"/>
		
			<rect x="259.049" y="-70.809" transform="matrix(0.9632 0.2687 -0.2687 0.9632 55.9447 -63.3877)" fill="#E47600" width="1.025" height="487.022"/>
		
			<rect x="266.406" y="-70.075" transform="matrix(0.9635 0.2677 -0.2677 0.9635 56.1596 -65.1176)" fill="#E47600" width="1.025" height="486.998"/>
		
			<rect x="273.738" y="-69.351" transform="matrix(0.9633 0.2684 -0.2684 0.9633 56.8114 -67.2257)" fill="#E47600" width="1.026" height="486.996"/>
		
			<rect x="281.086" y="-68.641" transform="matrix(0.9633 0.2684 -0.2684 0.9633 57.2716 -69.172)" fill="#E47600" width="1.026" height="486.996"/>
		
			<rect x="288.423" y="-67.957" transform="matrix(0.9631 0.2693 -0.2693 0.9631 57.9539 -71.3278)" fill="#E47600" width="1.026" height="487.02"/>
		
			<rect x="295.784" y="-67.263" transform="matrix(0.9632 0.2687 -0.2687 0.9632 58.2481 -73.1272)" fill="#E47600" width="1.025" height="487.022"/>
		
			<rect x="303.132" y="-66.554" transform="matrix(0.9632 0.2687 -0.2687 0.9632 58.7087 -75.0752)" fill="#E47600" width="1.025" height="487.022"/>
		
			<rect x="310.478" y="-65.845" transform="matrix(0.9632 0.2687 -0.2687 0.9632 59.1694 -77.0231)" fill="#E47600" width="1.025" height="487.022"/>
		
			<rect x="317.822" y="-65.092" transform="matrix(0.9633 0.2684 -0.2684 0.9633 59.5725 -78.9029)" fill="#E47600" width="1.026" height="486.996"/>
		
			<rect x="325.173" y="-64.426" transform="matrix(0.9632 0.2687 -0.2687 0.9632 60.0911 -80.9189)" fill="#E47600" width="1.025" height="487.023"/>
		
			<rect x="332.516" y="-63.673" transform="matrix(0.9633 0.2684 -0.2684 0.9633 60.4927 -82.795)" fill="#E47600" width="1.026" height="486.996"/>
		
			<rect x="339.852" y="-62.989" transform="matrix(0.9631 0.2693 -0.2693 0.9631 61.1919 -84.9947)" fill="#E47600" width="1.026" height="487.02"/>
		
			<rect x="347.214" y="-62.299" transform="matrix(0.9632 0.2687 -0.2687 0.9632 61.4731 -86.7625)" fill="#E47600" width="1.025" height="487.022"/>
		
			<rect x="354.558" y="-61.543" transform="matrix(0.9633 0.2684 -0.2684 0.9633 61.8733 -88.6335)" fill="#E47600" width="1.026" height="486.996"/>
		
			<rect x="361.92" y="-60.807" transform="matrix(0.9635 0.2675 -0.2675 0.9635 62.0874 -90.3077)" fill="#E47600" width="1.026" height="486.973"/>
		
			<rect x="369.253" y="-60.124" transform="matrix(0.9633 0.2684 -0.2684 0.9633 62.7935 -92.5261)" fill="#E47600" width="1.026" height="486.996"/>
		
			<rect x="376.602" y="-59.462" transform="matrix(0.9632 0.2687 -0.2687 0.9632 63.3157 -94.5542)" fill="#E47600" width="1.025" height="487.022"/>
		
			<rect x="383.949" y="-58.754" transform="matrix(0.9632 0.2687 -0.2687 0.9632 63.7762 -96.502)" fill="#E47600" width="1.025" height="487.023"/>
		
			<rect x="391.318" y="-58.006" transform="matrix(0.9632 0.2687 -0.2687 0.9632 64.2434 -98.4549)" fill="#E47600" width="1.025" height="486.988"/>
		
			<rect x="398.641" y="-57.285" transform="matrix(0.9633 0.2684 -0.2684 0.9633 64.6344 -100.3105)" fill="#E47600" width="1.026" height="486.996"/>
		
			<rect x="405.99" y="-56.576" transform="matrix(0.9633 0.2684 -0.2684 0.9633 65.0944 -102.2571)" fill="#E47600" width="1.026" height="486.996"/>
		
			<rect x="413.338" y="-55.916" transform="matrix(0.9635 0.2678 -0.2678 0.9635 65.3514 -103.9741)" fill="#E47600" width="1.025" height="487.022"/>
		
			<rect x="420.683" y="-55.156" transform="matrix(0.9633 0.2684 -0.2684 0.9633 66.0148 -106.1491)" fill="#E47600" width="1.026" height="486.996"/>
		
			<rect x="428.055" y="-54.458" transform="matrix(0.9632 0.2687 -0.2687 0.9632 66.5475 -108.195)" fill="#E47600" width="1.025" height="486.989"/>
		
			<rect x="435.362" y="-53.765" transform="matrix(0.963 0.2696 -0.2696 0.963 67.2823 -110.4705)" fill="#E47600" width="1.025" height="487.022"/>
		
			<rect x="442.725" y="-53.027" transform="matrix(0.9633 0.2684 -0.2684 0.9633 67.3952 -111.9877)" fill="#E47600" width="1.026" height="486.996"/>
		
			<rect x="450.098" y="-52.329" transform="matrix(0.9632 0.2687 -0.2687 0.9632 67.9299 -114.039)" fill="#E47600" width="1.025" height="486.988"/>
		
			<rect x="457.42" y="-51.606" transform="matrix(0.9633 0.2684 -0.2684 0.9633 68.3158 -115.8801)" fill="#E47600" width="1.026" height="486.995"/>
		
			<rect x="464.767" y="-50.896" transform="matrix(0.9633 0.2684 -0.2684 0.9633 68.7762 -117.8262)" fill="#E47600" width="1.026" height="486.996"/>
		
			<rect x="472.108" y="-50.224" transform="matrix(0.9634 0.2679 -0.2679 0.9634 69.0691 -119.5661)" fill="#E47600" width="1.028" height="487.016"/>
		
			<rect x="479.463" y="-49.477" transform="matrix(0.9633 0.2684 -0.2684 0.9633 69.6964 -121.7189)" fill="#E47600" width="1.026" height="486.996"/>
		
			<rect x="486.809" y="-48.767" transform="matrix(0.9633 0.2684 -0.2684 0.9633 70.1566 -123.6648)" fill="#E47600" width="1.026" height="486.996"/>
		
			<rect x="494.157" y="-48.057" transform="matrix(0.9633 0.2684 -0.2684 0.9633 70.6169 -125.6112)" fill="#E47600" width="1.026" height="486.998"/>
		
			<rect x="501.531" y="-47.365" transform="matrix(0.9632 0.2687 -0.2687 0.9632 71.155 -127.6753)" fill="#E47600" width="1.025" height="486.989"/>
		
			<rect x="508.831" y="-46.668" transform="matrix(0.9631 0.2693 -0.2693 0.9631 71.8309 -129.8997)" fill="#E47600" width="1.026" height="487.021"/>
		
			<rect x="516.199" y="-45.928" transform="matrix(0.9633 0.2684 -0.2684 0.9633 71.9973 -131.4498)" fill="#E47600" width="1.026" height="486.996"/>
		
			<rect x="523.547" y="-45.218" transform="matrix(0.9633 0.2684 -0.2684 0.9633 72.4575 -133.3959)" fill="#E47600" width="1.026" height="486.996"/>
		
			<rect x="530.893" y="-44.508" transform="matrix(0.9633 0.2684 -0.2684 0.9633 72.9175 -135.342)" fill="#E47600" width="1.026" height="486.995"/>
		
			<rect x="538.241" y="-43.798" transform="matrix(0.9633 0.2684 -0.2684 0.9633 73.3779 -137.2882)" fill="#E47600" width="1.026" height="486.996"/>
		
			<rect x="545.588" y="-43.088" transform="matrix(0.9633 0.2684 -0.2684 0.9633 73.8381 -139.2342)" fill="#E47600" width="1.026" height="486.996"/>
		
			<rect x="552.964" y="-42.399" transform="matrix(0.9632 0.2687 -0.2687 0.9632 74.3804 -141.3115)" fill="#E47600" width="1.025" height="486.988"/>
		
			<rect x="560.282" y="-41.669" transform="matrix(0.9633 0.2684 -0.2684 0.9633 74.7585 -143.1265)" fill="#E47600" width="1.026" height="486.997"/>
		
			<rect x="567.63" y="-40.959" transform="matrix(0.9633 0.2684 -0.2684 0.9633 75.2185 -145.0728)" fill="#E47600" width="1.026" height="486.996"/>
		
			<rect x="574.977" y="-40.249" transform="matrix(0.9633 0.2684 -0.2684 0.9633 75.6786 -147.0191)" fill="#E47600" width="1.026" height="486.995"/>
		
			<rect x="582.35" y="-39.572" transform="matrix(0.9631 0.2693 -0.2693 0.9631 76.4547 -149.4376)" fill="#E47600" width="1.026" height="486.995"/>
		
			<rect x="589.671" y="-38.828" transform="matrix(0.9633 0.2684 -0.2684 0.9633 76.5992 -150.9112)" fill="#E47600" width="1.026" height="486.994"/>
		
			<rect x="597.019" y="-38.12" transform="matrix(0.9633 0.2684 -0.2684 0.9633 77.0591 -152.8575)" fill="#E47600" width="1.026" height="486.996"/>
		
			<rect x="604.366" y="-37.41" transform="matrix(0.9633 0.2684 -0.2684 0.9633 77.5197 -154.8036)" fill="#E47600" width="1.026" height="486.996"/>
		
			<rect x="611.714" y="-36.701" transform="matrix(0.9635 0.2675 -0.2675 0.9635 77.6462 -156.2598)" fill="#E47600" width="1.026" height="486.996"/>
		
			<rect x="619.06" y="-35.991" transform="matrix(0.9634 0.2682 -0.2682 0.9634 78.3464 -158.5579)" fill="#E47600" width="1.027" height="486.996"/>
		
			<rect x="626.44" y="-35.305" transform="matrix(0.9632 0.2687 -0.2687 0.9632 78.9879 -160.7918)" fill="#E47600" width="1.025" height="486.988"/>
		
			<rect x="633.756" y="-34.572" transform="matrix(0.9633 0.2684 -0.2684 0.9633 79.36 -162.5885)" fill="#E47600" width="1.026" height="486.996"/>
		
			<rect x="641.077" y="-33.895" transform="matrix(0.9631 0.2693 -0.2693 0.9631 80.1569 -165.0435)" fill="#E47600" width="1.026" height="487.02"/>
		
			<rect x="648.45" y="-33.152" transform="matrix(0.9633 0.2684 -0.2684 0.9633 80.2805 -166.4808)" fill="#E47600" width="1.026" height="486.996"/>
		
			<rect x="655.824" y="-32.409" transform="matrix(0.9636 0.2673 -0.2673 0.9636 80.3029 -167.7587)" fill="#E47600" width="1.027" height="486.972"/>
		
			<rect x="663.177" y="-31.756" transform="matrix(0.9632 0.2689 -0.2689 0.9632 81.3901 -170.6808)" fill="#E47600" width="1.024" height="486.987"/>
		
			<rect x="670.492" y="-31.023" transform="matrix(0.9633 0.2684 -0.2684 0.9633 81.6609 -172.3194)" fill="#E47600" width="1.026" height="486.996"/>
		
			<rect x="677.84" y="-30.313" transform="matrix(0.9633 0.2684 -0.2684 0.9633 82.1211 -174.2656)" fill="#E47600" width="1.026" height="486.996"/>
		
			<rect x="685.174" y="-29.652" transform="matrix(0.9634 0.2682 -0.2682 0.9634 82.4708 -176.0558)" fill="#E47600" width="1.027" height="487.017"/>
		
			<rect x="692.534" y="-28.893" transform="matrix(0.9633 0.2684 -0.2684 0.9633 83.0416 -178.1579)" fill="#E47600" width="1.026" height="486.996"/>
		
			<rect x="699.881" y="-28.183" transform="matrix(0.9634 0.2682 -0.2682 0.9634 83.4009 -179.9466)" fill="#E47600" width="1.027" height="486.996"/>
		
			<rect x="707.228" y="-27.473" transform="matrix(0.9633 0.2684 -0.2684 0.9633 83.962 -182.0502)" fill="#E47600" width="1.026" height="486.996"/>
		
			<rect x="714.546" y="-26.798" transform="matrix(0.9631 0.2693 -0.2693 0.9631 84.7827 -184.5673)" fill="#E47600" width="1.026" height="487.021"/>
		
			<rect x="721.923" y="-26.054" transform="matrix(0.9633 0.2684 -0.2684 0.9633 84.8821 -185.9425)" fill="#E47600" width="1.026" height="486.996"/>
		
			<rect x="729.306" y="-25.372" transform="matrix(0.9632 0.2687 -0.2687 0.9632 85.439 -188.0642)" fill="#E47600" width="1.025" height="486.989"/>
		
			<rect x="736.618" y="-24.634" transform="matrix(0.9633 0.2684 -0.2684 0.9633 85.8027 -189.8351)" fill="#E47600" width="1.026" height="486.996"/>
		
			<rect x="743.965" y="-23.924" transform="matrix(0.9633 0.2684 -0.2684 0.9633 86.2628 -191.7811)" fill="#E47600" width="1.026" height="486.996"/>
		
			<rect x="751.305" y="-23.256" transform="matrix(0.9635 0.2678 -0.2678 0.9635 86.4397 -193.2858)" fill="#E47600" width="1.025" height="487.012"/>
		
			<rect x="758.659" y="-22.505" transform="matrix(0.9634 0.2682 -0.2682 0.9634 87.0767 -195.502)" fill="#E47600" width="1.027" height="486.996"/>
		
			<rect x="766.043" y="-21.826" transform="matrix(0.9632 0.2687 -0.2687 0.9632 87.7427 -197.8041)" fill="#E47600" width="1.025" height="486.989"/>
		
			<rect x="773.321" y="-21.12" transform="matrix(0.9631 0.2693 -0.2693 0.9631 88.4833 -200.1864)" fill="#E47600" width="1.026" height="487.02"/>
		
			<rect x="780.701" y="-20.375" transform="matrix(0.9633 0.2684 -0.2684 0.9633 88.5637 -201.5121)" fill="#E47600" width="1.026" height="486.996"/>
	</g>
</g>
<g id="Layer_4">
	<linearGradient id="SVGID_1_" gradientUnits="userSpaceOnUse" x1="397.2778" y1="-66.6252" x2="397.2778" y2="134.4424">
		<stop  offset="0.353" style="stop-color:#FADC57"/>
		<stop  offset="0.8856" style="stop-color:#F69725"/>
	</linearGradient>
	<rect y="0" fill="url(#SVGID_1_)" width="794.557" height="179.979"/>
</g>
<g id="Layer_3">
	<linearGradient id="SVGID_2_" gradientUnits="userSpaceOnUse" x1="397.2778" y1="-40.2288" x2="397.2778" y2="67.4941">
		<stop  offset="0" style="stop-color:#EB7823"/>
		<stop  offset="0.199" style="stop-color:#EC7D22"/>
		<stop  offset="0.4409" style="stop-color:#EF8C1E"/>
		<stop  offset="0.705" style="stop-color:#F3A519"/>
		<stop  offset="0.9833" style="stop-color:#FAC711"/>
		<stop  offset="1" style="stop-color:#FAC910"/>
	</linearGradient>
	<path fill="url(#SVGID_2_)" d="M0,64C0,64,233.837,7.489,397.278,7.489C566.842,7.489,794.557,64,794.557,64V0H0V64z"/>
</g>
</svg>
