<?xml version="1.0" encoding="utf-8"?>
<!-- Generator: Adobe Illustrator 16.0.0, SVG Export Plug-In . SVG Version: 6.00 Build 0)  -->
<!DOCTYPE svg PUBLIC "-//W3C//DTD SVG 1.1//EN" "http://www.w3.org/Graphics/SVG/1.1/DTD/svg11.dtd">
<svg version="1.1" id="Layer_1" xmlns="http://www.w3.org/2000/svg" xmlns:xlink="http://www.w3.org/1999/xlink" x="0px" y="0px"
	 width="794.557px" height="179.979px" viewBox="0 0 794.557 179.979" enable-background="new 0 0 794.557 179.979"
	 xml:space="preserve">
<g id="Layer_2" display="none">
	<g display="inline">
		
			<rect x="-64.225" y="-102.013" transform="matrix(-0.9632 -0.2687 0.2687 -0.9632 -163.0972 260.6644)" fill="#E47600" width="1.025" height="487.011"/>
		
			<rect x="-56.877" y="-101.305" transform="matrix(-0.9632 -0.2687 0.2687 -0.9632 -148.8623 264.0285)" fill="#E47600" width="1.025" height="487.011"/>
		
			<rect x="-49.535" y="-100.595" transform="matrix(-0.9629 -0.2697 0.2697 -0.9629 -134.7722 267.3205)" fill="#E47600" width="1.025" height="487.026"/>
		
			<rect x="-42.183" y="-99.887" transform="matrix(-0.9632 -0.2687 0.2687 -0.9632 -120.3966 270.762)" fill="#E47600" width="1.025" height="487.013"/>
		
			<rect x="-34.836" y="-99.176" transform="matrix(-0.9632 -0.2687 0.2687 -0.9632 -106.1638 274.1307)" fill="#E47600" width="1.025" height="487.012"/>
		
			<rect x="-27.495" y="-98.45" transform="matrix(-0.9633 -0.2683 0.2683 -0.9633 -91.8909 277.5346)" fill="#E47600" width="1.026" height="486.992"/>
		
			<rect x="-20.153" y="-97.74" transform="matrix(-0.963 -0.2694 0.2694 -0.963 -77.8277 280.8475)" fill="#E47600" width="1.026" height="487.009"/>
		
			<rect x="-12.8" y="-97.022" transform="matrix(-0.9632 -0.2687 0.2687 -0.9632 -63.476 284.2472)" fill="#E47600" width="1.025" height="486.978"/>
		
			<rect x="-5.452" y="-96.347" transform="matrix(-0.9632 -0.2687 0.2687 -0.9632 -49.2398 287.6124)" fill="#E47600" width="1.025" height="487.046"/>
		
			<rect x="1.897" y="-95.63" transform="matrix(-0.9632 -0.2687 0.2687 -0.9632 -34.9993 290.9607)" fill="#E47600" width="1.025" height="487.011"/>
		
			<rect x="9.241" y="-94.893" transform="matrix(-0.963 -0.2694 0.2694 -0.963 -20.8891 294.3218)" fill="#E47600" width="1.026" height="486.974"/>
		
			<rect x="16.592" y="-94.202" transform="matrix(-0.963 -0.2696 0.2696 -0.963 -6.667 297.6738)" fill="#E47600" width="1.025" height="486.993"/>
		
			<rect x="23.931" y="-93.481" transform="matrix(-0.9633 -0.2684 0.2684 -0.9633 7.7247 301.0742)" fill="#E47600" width="1.026" height="486.979"/>
		
			<rect x="31.286" y="-92.793" transform="matrix(-0.9632 -0.2687 0.2687 -0.9632 21.9343 304.4261)" fill="#E47600" width="1.025" height="487.011"/>
		
			<rect x="38.631" y="-92.063" transform="matrix(-0.9633 -0.2684 0.2684 -0.9633 36.2015 307.8153)" fill="#E47600" width="1.026" height="486.992"/>
		
			<rect x="45.983" y="-91.349" transform="matrix(-0.9632 -0.2687 0.2687 -0.9632 50.4036 311.1904)" fill="#E47600" width="1.025" height="486.99"/>
		
			<rect x="53.326" y="-90.666" transform="matrix(-0.9632 -0.2687 0.2687 -0.9632 64.6324 314.5244)" fill="#E47600" width="1.025" height="487.012"/>
		
			<rect x="60.672" y="-89.955" transform="matrix(-0.9632 -0.2687 0.2687 -0.9632 78.8647 317.8931)" fill="#E47600" width="1.025" height="487.011"/>
		
			<rect x="68.02" y="-89.225" transform="matrix(-0.9633 -0.2684 0.2684 -0.9633 93.1393 321.2768)" fill="#E47600" width="1.026" height="486.993"/>
		
			<rect x="75.367" y="-88.536" transform="matrix(-0.9632 -0.2687 0.2687 -0.9632 107.3328 324.6269)" fill="#E47600" width="1.025" height="487.011"/>
		
			<rect x="82.714" y="-87.827" transform="matrix(-0.9632 -0.2687 0.2687 -0.9632 121.5654 327.9937)" fill="#E47600" width="1.025" height="487.012"/>
		
			<rect x="90.069" y="-87.092" transform="matrix(-0.9632 -0.2687 0.2687 -0.9632 135.8108 331.3924)" fill="#E47600" width="1.025" height="486.99"/>
		
			<rect x="97.409" y="-86.411" transform="matrix(-0.9631 -0.2693 0.2693 -0.9631 149.9138 334.786)" fill="#E47600" width="1.026" height="487.041"/>
		
			<rect x="104.753" y="-85.699" transform="matrix(-0.9632 -0.2687 0.2687 -0.9632 164.2615 338.0926)" fill="#E47600" width="1.025" height="487.012"/>
		
			<rect x="112.101" y="-84.991" transform="matrix(-0.9632 -0.2687 0.2687 -0.9632 178.4965 341.4597)" fill="#E47600" width="1.025" height="487.013"/>
		
			<rect x="119.452" y="-84.259" transform="matrix(-0.9635 -0.2677 0.2677 -0.9635 192.9277 344.7772)" fill="#E47600" width="1.025" height="486.996"/>
		
			<rect x="126.798" y="-83.542" transform="matrix(-0.9632 -0.2687 0.2687 -0.9632 206.966 348.2191)" fill="#E47600" width="1.025" height="486.978"/>
		
			<rect x="134.141" y="-82.862" transform="matrix(-0.9632 -0.2687 0.2687 -0.9632 221.1949 351.559)" fill="#E47600" width="1.025" height="487.011"/>
		
			<rect x="141.481" y="-82.15" transform="matrix(-0.9632 -0.2687 0.2687 -0.9632 235.41 354.9614)" fill="#E47600" width="1.025" height="487.045"/>
		
			<rect x="148.84" y="-81.413" transform="matrix(-0.9632 -0.2687 0.2687 -0.9632 249.668 358.3209)" fill="#E47600" width="1.025" height="486.978"/>
		
			<rect x="156.18" y="-80.732" transform="matrix(-0.9631 -0.2693 0.2693 -0.9631 263.76 361.7288)" fill="#E47600" width="1.026" height="487.007"/>
		
			<rect x="163.535" y="-80.028" transform="matrix(-0.9632 -0.2687 0.2687 -0.9632 278.1357 365.0537)" fill="#E47600" width="1.025" height="487.046"/>
		
			<rect x="170.872" y="-79.286" transform="matrix(-0.9633 -0.2684 0.2684 -0.9633 292.4036 368.3852)" fill="#E47600" width="1.026" height="486.979"/>
		
			<rect x="178.228" y="-78.582" transform="matrix(-0.9633 -0.2684 0.2684 -0.9633 306.6546 371.7565)" fill="#E47600" width="1.026" height="486.993"/>
		
			<rect x="185.568" y="-77.896" transform="matrix(-0.9632 -0.2687 0.2687 -0.9632 320.8243 375.1253)" fill="#E47600" width="1.025" height="487.011"/>
		
			<rect x="192.924" y="-77.155" transform="matrix(-0.9632 -0.2687 0.2687 -0.9632 335.071 378.5242)" fill="#E47600" width="1.025" height="486.978"/>
		
			<rect x="200.271" y="-76.443" transform="matrix(-0.9631 -0.2693 0.2693 -0.9631 349.1631 381.9893)" fill="#E47600" width="1.026" height="486.974"/>
		
			<rect x="207.629" y="-75.741" transform="matrix(-0.963 -0.2696 0.2696 -0.963 363.36 385.4043)" fill="#E47600" width="1.025" height="486.989"/>
		
			<rect x="214.954" y="-75.028" transform="matrix(-0.9633 -0.2684 0.2684 -0.9633 377.8064 388.5774)" fill="#E47600" width="1.026" height="486.979"/>
		
			<rect x="222.302" y="-74.349" transform="matrix(-0.9632 -0.2687 0.2687 -0.9632 391.9884 391.9581)" fill="#E47600" width="1.025" height="487.011"/>
		
			<rect x="229.66" y="-73.614" transform="matrix(-0.9633 -0.2683 0.2683 -0.9633 406.326 395.2931)" fill="#E47600" width="1.026" height="486.993"/>
		
			<rect x="236.995" y="-72.899" transform="matrix(-0.9633 -0.2684 0.2684 -0.9633 420.5083 398.6755)" fill="#E47600" width="1.026" height="486.979"/>
		
			<rect x="244.355" y="-72.22" transform="matrix(-0.9633 -0.2684 0.2684 -0.9633 434.7665 402.0439)" fill="#E47600" width="1.026" height="487.041"/>
		
			<rect x="251.701" y="-71.462" transform="matrix(-0.9636 -0.2674 0.2674 -0.9636 449.2432 405.2051)" fill="#E47600" width="1.026" height="486.946"/>
		
			<rect x="259.037" y="-70.802" transform="matrix(-0.9632 -0.2687 0.2687 -0.9632 463.154 408.7911)" fill="#E47600" width="1.025" height="487.011"/>
		
			<rect x="266.398" y="-70.068" transform="matrix(-0.9635 -0.2678 0.2678 -0.9635 477.6288 412.0029)" fill="#E47600" width="1.025" height="486.997"/>
		
			<rect x="273.743" y="-69.357" transform="matrix(-0.9633 -0.2684 0.2684 -0.9633 491.7032 415.5062)" fill="#E47600" width="1.026" height="486.993"/>
		
			<rect x="281.091" y="-68.647" transform="matrix(-0.9633 -0.2684 0.2684 -0.9633 505.9389 418.8715)" fill="#E47600" width="1.026" height="486.992"/>
		
			<rect x="288.439" y="-67.963" transform="matrix(-0.963 -0.2694 0.2694 -0.963 519.9163 422.4773)" fill="#E47600" width="1.026" height="487.041"/>
		
			<rect x="295.77" y="-67.255" transform="matrix(-0.9632 -0.2687 0.2687 -0.9632 534.3176 425.6239)" fill="#E47600" width="1.025" height="487.011"/>
		
			<rect x="303.118" y="-66.546" transform="matrix(-0.9632 -0.2687 0.2687 -0.9632 548.5523 428.9899)" fill="#E47600" width="1.025" height="487.011"/>
		
			<rect x="310.464" y="-65.837" transform="matrix(-0.9632 -0.2687 0.2687 -0.9632 562.7841 432.3556)" fill="#E47600" width="1.025" height="487.011"/>
		
			<rect x="317.827" y="-65.099" transform="matrix(-0.9633 -0.2684 0.2684 -0.9633 577.1105 435.698)" fill="#E47600" width="1.026" height="486.992"/>
		
			<rect x="325.159" y="-64.418" transform="matrix(-0.9632 -0.2687 0.2687 -0.9632 591.251 439.0912)" fill="#E47600" width="1.025" height="487.013"/>
		
			<rect x="332.522" y="-63.68" transform="matrix(-0.9633 -0.2684 0.2684 -0.9633 605.579 442.4282)" fill="#E47600" width="1.026" height="486.992"/>
		
			<rect x="339.871" y="-62.995" transform="matrix(-0.963 -0.2696 0.2696 -0.963 619.5045 446.1224)" fill="#E47600" width="1.025" height="487.041"/>
		
			<rect x="347.199" y="-62.29" transform="matrix(-0.9632 -0.2687 0.2687 -0.9632 633.9502 449.1887)" fill="#E47600" width="1.025" height="487.011"/>
		
			<rect x="354.564" y="-61.552" transform="matrix(-0.9633 -0.2684 0.2684 -0.9633 648.2824 452.5256)" fill="#E47600" width="1.026" height="486.993"/>
		
			<rect x="361.912" y="-60.818" transform="matrix(-0.9635 -0.2675 0.2675 -0.9635 662.7694 455.6166)" fill="#E47600" width="1.026" height="486.947"/>
		
			<rect x="369.258" y="-60.133" transform="matrix(-0.9633 -0.2684 0.2684 -0.9633 676.7515 459.2549)" fill="#E47600" width="1.026" height="486.992"/>
		
			<rect x="376.586" y="-59.453" transform="matrix(-0.963 -0.2696 0.2696 -0.963 690.625 462.9424)" fill="#E47600" width="1.025" height="487.011"/>
		
			<rect x="383.933" y="-58.744" transform="matrix(-0.9632 -0.2687 0.2687 -0.9632 705.1135 466.0204)" fill="#E47600" width="1.025" height="487.012"/>
		
			<rect x="391.301" y="-57.997" transform="matrix(-0.9632 -0.2687 0.2687 -0.9632 719.384 469.4344)" fill="#E47600" width="1.025" height="486.977"/>
		
			<rect x="398.647" y="-57.295" transform="matrix(-0.9633 -0.2684 0.2684 -0.9633 733.6885 472.7153)" fill="#E47600" width="1.026" height="486.992"/>
		
			<rect x="405.996" y="-56.586" transform="matrix(-0.9633 -0.2684 0.2684 -0.9633 747.9258 476.0798)" fill="#E47600" width="1.026" height="486.992"/>
		
			<rect x="413.346" y="-55.914" transform="matrix(-0.9635 -0.2678 0.2678 -0.9635 762.3633 479.1825)" fill="#E47600" width="1.025" height="487.034"/>
		
			<rect x="420.689" y="-55.167" transform="matrix(-0.9633 -0.2684 0.2684 -0.9633 776.3922 482.8107)" fill="#E47600" width="1.026" height="486.993"/>
		
			<rect x="428.036" y="-54.448" transform="matrix(-0.9633 -0.2684 0.2684 -0.9633 790.6264 486.1797)" fill="#E47600" width="1.026" height="486.978"/>
		
			<rect x="435.362" y="-53.751" transform="matrix(-0.9629 -0.2698 0.2698 -0.9629 804.3831 490.0978)" fill="#E47600" width="1.024" height="487.036"/>
		
			<rect x="442.731" y="-53.038" transform="matrix(-0.9633 -0.2684 0.2684 -0.9633 819.0959 492.9062)" fill="#E47600" width="1.026" height="486.992"/>
		
			<rect x="450.08" y="-52.318" transform="matrix(-0.9632 -0.2687 0.2687 -0.9632 833.2532 496.3752)" fill="#E47600" width="1.025" height="486.977"/>
		
			<rect x="457.426" y="-51.618" transform="matrix(-0.9633 -0.2684 0.2684 -0.9633 847.566 499.6386)" fill="#E47600" width="1.026" height="486.992"/>
		
			<rect x="464.773" y="-50.908" transform="matrix(-0.9633 -0.2684 0.2684 -0.9633 861.7996 503.0055)" fill="#E47600" width="1.026" height="486.993"/>
		
			<rect x="472.098" y="-50.238" transform="matrix(-0.9635 -0.2677 0.2677 -0.9635 876.2422 505.9799)" fill="#E47600" width="1.029" height="486.994"/>
		
			<rect x="479.469" y="-49.489" transform="matrix(-0.9633 -0.2684 0.2684 -0.9633 890.2711 509.7352)" fill="#E47600" width="1.026" height="486.992"/>
		
			<rect x="486.815" y="-48.779" transform="matrix(-0.9633 -0.2684 0.2684 -0.9633 904.5033 513.101)" fill="#E47600" width="1.026" height="486.992"/>
		
			<rect x="494.163" y="-48.07" transform="matrix(-0.9633 -0.2684 0.2684 -0.9633 918.7382 516.4681)" fill="#E47600" width="1.026" height="486.995"/>
		
			<rect x="501.511" y="-47.353" transform="matrix(-0.9632 -0.2687 0.2687 -0.9632 932.8909 519.9417)" fill="#E47600" width="1.025" height="486.978"/>
		
			<rect x="508.858" y="-46.675" transform="matrix(-0.963 -0.2696 0.2696 -0.963 946.8246 523.7109)" fill="#E47600" width="1.025" height="487.041"/>
		
			<rect x="516.205" y="-45.941" transform="matrix(-0.9633 -0.2684 0.2684 -0.9633 961.4431 526.5618)" fill="#E47600" width="1.026" height="486.992"/>
		
			<rect x="523.553" y="-45.231" transform="matrix(-0.9633 -0.2684 0.2684 -0.9633 975.6782 529.928)" fill="#E47600" width="1.026" height="486.992"/>
		
			<rect x="530.899" y="-44.521" transform="matrix(-0.9633 -0.2684 0.2684 -0.9633 989.9105 533.2928)" fill="#E47600" width="1.026" height="486.991"/>
		
			<rect x="538.247" y="-43.812" transform="matrix(-0.9633 -0.2684 0.2684 -0.9633 1004.1466 536.6591)" fill="#E47600" width="1.026" height="486.993"/>
		
			<rect x="545.594" y="-43.102" transform="matrix(-0.9633 -0.2684 0.2684 -0.9633 1018.3797 540.025)" fill="#E47600" width="1.026" height="486.993"/>
		
			<rect x="552.942" y="-42.386" transform="matrix(-0.9632 -0.2687 0.2687 -0.9632 1032.5278 543.51)" fill="#E47600" width="1.025" height="486.977"/>
		
			<rect x="560.288" y="-41.683" transform="matrix(-0.9633 -0.2684 0.2684 -0.9633 1046.8483 546.7552)" fill="#E47600" width="1.026" height="486.993"/>
		
			<rect x="567.636" y="-40.973" transform="matrix(-0.9633 -0.2684 0.2684 -0.9633 1061.0834 550.1205)" fill="#E47600" width="1.026" height="486.992"/>
		
			<rect x="574.983" y="-40.264" transform="matrix(-0.9633 -0.2684 0.2684 -0.9633 1075.3179 553.4846)" fill="#E47600" width="1.026" height="486.992"/>
		
			<rect x="582.38" y="-39.579" transform="matrix(-0.9631 -0.2693 0.2693 -0.9631 1089.3296 557.3026)" fill="#E47600" width="1.026" height="487.016"/>
		
			<rect x="589.677" y="-38.843" transform="matrix(-0.9633 -0.2684 0.2684 -0.9633 1103.7859 560.2177)" fill="#E47600" width="1.026" height="486.991"/>
		
			<rect x="597.025" y="-38.135" transform="matrix(-0.9633 -0.2684 0.2684 -0.9633 1118.0212 563.582)" fill="#E47600" width="1.026" height="486.993"/>
		
			<rect x="604.373" y="-37.425" transform="matrix(-0.9633 -0.2684 0.2684 -0.9633 1132.2565 566.9472)" fill="#E47600" width="1.026" height="486.992"/>
		
			<rect x="611.695" y="-36.725" transform="matrix(-0.9636 -0.2673 0.2673 -0.9636 1146.8737 569.6403)" fill="#E47600" width="1.027" height="486.97"/>
		
			<rect x="619.076" y="-35.983" transform="matrix(-0.9634 -0.2682 0.2682 -0.9634 1160.8284 573.6099)" fill="#E47600" width="1.027" height="487.014"/>
		
			<rect x="626.416" y="-35.291" transform="matrix(-0.9632 -0.2687 0.2687 -0.9632 1174.8669 577.181)" fill="#E47600" width="1.025" height="486.977"/>
		
			<rect x="633.763" y="-34.589" transform="matrix(-0.9633 -0.2684 0.2684 -0.9633 1189.1964 580.407)" fill="#E47600" width="1.026" height="486.993"/>
		
			<rect x="641.11" y="-33.903" transform="matrix(-0.9631 -0.2693 0.2693 -0.9631 1203.0876 584.2861)" fill="#E47600" width="1.026" height="487.04"/>
		
			<rect x="648.457" y="-33.169" transform="matrix(-0.9633 -0.2684 0.2684 -0.9633 1217.6638 587.1381)" fill="#E47600" width="1.026" height="486.992"/>
		
			<rect x="655.816" y="-32.409" transform="matrix(-0.9636 -0.2673 0.2673 -0.9636 1232.3563 589.9047)" fill="#E47600" width="1.027" height="486.965"/>
		
			<rect x="663.207" y="-31.771" transform="matrix(-0.9632 -0.2689 0.2689 -0.9632 1246.0481 594.1506)" fill="#E47600" width="1.024" height="487.003"/>
		
			<rect x="670.499" y="-31.041" transform="matrix(-0.9633 -0.2684 0.2684 -0.9633 1260.3676 597.2335)" fill="#E47600" width="1.026" height="486.993"/>
		
			<rect x="677.847" y="-30.331" transform="matrix(-0.9633 -0.2684 0.2684 -0.9633 1274.6035 600.5999)" fill="#E47600" width="1.026" height="486.993"/>
		
			<rect x="685.193" y="-29.642" transform="matrix(-0.9634 -0.2682 0.2682 -0.9634 1288.9357 603.8097)" fill="#E47600" width="1.027" height="487.034"/>
		
			<rect x="692.541" y="-28.911" transform="matrix(-0.9633 -0.2684 0.2684 -0.9633 1303.071 607.3309)" fill="#E47600" width="1.026" height="486.992"/>
		
			<rect x="699.9" y="-28.173" transform="matrix(-0.9634 -0.2682 0.2682 -0.9634 1317.4197 610.6184)" fill="#E47600" width="1.027" height="487.014"/>
		
			<rect x="707.235" y="-27.492" transform="matrix(-0.9633 -0.2684 0.2684 -0.9633 1331.5383 614.0619)" fill="#E47600" width="1.026" height="486.993"/>
		
			<rect x="714.582" y="-26.807" transform="matrix(-0.9631 -0.2693 0.2693 -0.9631 1345.406 618.0051)" fill="#E47600" width="1.026" height="487.042"/>
		
			<rect x="721.93" y="-26.073" transform="matrix(-0.9633 -0.2684 0.2684 -0.9633 1360.0089 620.7914)" fill="#E47600" width="1.026" height="486.992"/>
		
			<rect x="729.278" y="-25.355" transform="matrix(-0.9632 -0.2687 0.2687 -0.9632 1374.1399 624.3244)" fill="#E47600" width="1.025" height="486.978"/>
		
			<rect x="736.624" y="-24.654" transform="matrix(-0.9634 -0.2682 0.2682 -0.9634 1388.5826 627.3564)" fill="#E47600" width="1.027" height="486.993"/>
		
			<rect x="743.972" y="-23.944" transform="matrix(-0.9633 -0.2684 0.2684 -0.9633 1402.7124 630.8888)" fill="#E47600" width="1.026" height="486.993"/>
		
			<rect x="751.32" y="-23.25" transform="matrix(-0.9633 -0.2684 0.2684 -0.9633 1416.9485 634.2542)" fill="#E47600" width="1.026" height="487.024"/>
		
			<rect x="758.68" y="-22.494" transform="matrix(-0.9634 -0.2682 0.2682 -0.9634 1431.304 637.5327)" fill="#E47600" width="1.027" height="487.013"/>
		
			<rect x="766.014" y="-21.808" transform="matrix(-0.9632 -0.2687 0.2687 -0.9632 1445.3088 641.1578)" fill="#E47600" width="1.025" height="486.978"/>
		
			<rect x="773.36" y="-21.129" transform="matrix(-0.9633 -0.2684 0.2684 -0.9633 1459.6482 644.351)" fill="#E47600" width="1.026" height="487.041"/>
		
			<rect x="780.708" y="-20.396" transform="matrix(-0.9633 -0.2684 0.2684 -0.9633 1473.8845 647.7153)" fill="#E47600" width="1.026" height="486.993"/>
	</g>
</g>
<g id="Layer_4">
	
		<linearGradient id="SVGID_1_" gradientUnits="userSpaceOnUse" x1="443.2783" y1="-38.3962" x2="443.2783" y2="-239.4644" gradientTransform="matrix(1 0 0 -1 -46 -105.021)">
		<stop  offset="0.4222" style="stop-color:#F69725"/>
		<stop  offset="1" style="stop-color:#FADC57"/>
	</linearGradient>
	<rect y="0" fill="url(#SVGID_1_)" width="794.557" height="179.979"/>
</g>
<g id="Layer_3">
	
		<linearGradient id="SVGID_2_" gradientUnits="userSpaceOnUse" x1="443.2783" y1="-64.7922" x2="443.2783" y2="-172.516" gradientTransform="matrix(1 0 0 -1 -46 -105.021)">
		<stop  offset="0.3655" style="stop-color:#FAC910"/>
		<stop  offset="0.6579" style="stop-color:#F4A618"/>
		<stop  offset="1" style="stop-color:#EB7823"/>
	</linearGradient>
	<path fill="url(#SVGID_2_)" d="M0,64C0,64,233.837,7.49,397.278,7.49C566.842,7.49,794.557,64,794.557,64V0H0V64z"/>
</g>
</svg>
