<?xml version="1.0" encoding="utf-8"?>
<!-- Generator: Adobe Illustrator 16.0.0, SVG Export Plug-In . SVG Version: 6.00 Build 0)  -->
<!DOCTYPE svg PUBLIC "-//W3C//DTD SVG 1.1//EN" "http://www.w3.org/Graphics/SVG/1.1/DTD/svg11.dtd">
<svg version="1.1" id="Layer_2" xmlns="http://www.w3.org/2000/svg" xmlns:xlink="http://www.w3.org/1999/xlink" x="0px" y="0px"
	 width="513px" height="206px" viewBox="0 0 513 206" enable-background="new 0 0 513 206" xml:space="preserve">
<rect fill="#FA0126" width="513" height="206"/>
<g>
	<path fill="#FFFFFF" d="M93.731,28.058v7.612h8.8v-7.612h2.375v18.193h-2.375v-8.53h-8.8v8.53h-2.349V28.058H93.731z"/>
	<path fill="#FFFFFF" d="M111.335,28.058v18.193h-2.349V28.058H111.335z"/>
	<path fill="#FFFFFF" d="M114.9,44.874c0-0.972,0.675-1.674,1.592-1.674c0.972,0,1.593,0.702,1.593,1.674
		c0,0.945-0.621,1.674-1.593,1.674C115.547,46.548,114.9,45.819,114.9,44.874z M115.575,41.014l-0.378-12.956h2.591l-0.378,12.956
		H115.575z"/>
	<path fill="#FFFFFF" d="M93.731,60.458v18.193h-2.349V60.458H93.731z"/>
	<path fill="#FFFFFF" d="M98.025,69.123c0-1.35-0.027-2.457-0.108-3.536h2.079l0.108,2.105h0.081
		c0.729-1.242,1.943-2.402,4.103-2.402c1.781,0,3.131,1.079,3.698,2.618h0.054c0.405-0.729,0.917-1.296,1.458-1.701
		c0.783-0.594,1.646-0.917,2.888-0.917c1.728,0,4.292,1.134,4.292,5.668v7.693h-2.321v-7.396c0-2.51-0.918-4.021-2.834-4.021
		c-1.35,0-2.402,0.998-2.807,2.159c-0.108,0.324-0.189,0.756-0.189,1.188v8.071h-2.321v-7.828c0-2.078-0.918-3.59-2.727-3.59
		c-1.484,0-2.564,1.188-2.942,2.375c-0.135,0.351-0.189,0.756-0.189,1.161v7.882h-2.321v-9.529H98.025z"/>
	<path fill="#FFFFFF" d="M129.127,61.835v3.752h3.401v1.809h-3.401v7.045c0,1.62,0.459,2.537,1.782,2.537
		c0.621,0,1.08-0.081,1.376-0.162l0.108,1.782c-0.458,0.188-1.188,0.323-2.105,0.323c-1.106,0-1.997-0.351-2.564-0.998
		c-0.675-0.702-0.918-1.862-0.918-3.401v-7.126h-2.024v-1.809h2.024v-3.132L129.127,61.835z"/>
	<path fill="#FFFFFF" d="M135.204,59.486h2.375v8.151h0.054c0.378-0.675,0.972-1.269,1.701-1.673
		c0.702-0.405,1.539-0.675,2.429-0.675c1.754,0,4.562,1.079,4.562,5.587v7.774h-2.375v-7.504c0-2.105-0.783-3.888-3.023-3.888
		c-1.539,0-2.753,1.08-3.185,2.376c-0.135,0.323-0.162,0.675-0.162,1.134v7.882h-2.375L135.204,59.486L135.204,59.486z"/>
	<path fill="#FFFFFF" d="M151.511,72.551c0.054,3.212,2.105,4.535,4.481,4.535c1.701,0,2.726-0.297,3.617-0.675l0.405,1.7
		c-0.837,0.378-2.268,0.81-4.346,0.81c-4.022,0-6.424-2.645-6.424-6.586s2.321-7.045,6.127-7.045c4.265,0,5.398,3.752,5.398,6.154
		c0,0.485-0.054,0.863-0.081,1.106L151.511,72.551L151.511,72.551z M158.475,70.851c0.027-1.512-0.621-3.86-3.293-3.86
		c-2.402,0-3.455,2.214-3.644,3.86H158.475z"/>
	<path fill="#FFFFFF" d="M172.084,61.916c0.027,0.81-0.567,1.457-1.512,1.457c-0.836,0-1.431-0.647-1.431-1.457
		c0-0.837,0.621-1.485,1.485-1.485C171.517,60.431,172.084,61.079,172.084,61.916z M169.439,78.651V65.587h2.375v13.064H169.439z"/>
	<path fill="#FFFFFF" d="M175.757,69.123c0-1.35-0.027-2.457-0.108-3.536h2.079l0.108,2.105h0.081
		c0.729-1.242,1.943-2.402,4.103-2.402c1.781,0,3.131,1.079,3.698,2.618h0.054c0.405-0.729,0.917-1.296,1.458-1.701
		c0.783-0.594,1.646-0.917,2.888-0.917c1.728,0,4.292,1.134,4.292,5.668v7.693h-2.321v-7.396c0-2.51-0.918-4.021-2.834-4.021
		c-1.35,0-2.402,0.998-2.807,2.159c-0.108,0.324-0.189,0.756-0.189,1.188v8.071h-2.321v-7.828c0-2.078-0.918-3.59-2.727-3.59
		c-1.484,0-2.564,1.188-2.942,2.375c-0.135,0.351-0.189,0.756-0.189,1.161v7.882h-2.321v-9.529H175.757z"/>
	<path fill="#FFFFFF" d="M209.531,65.587c-0.054,0.944-0.108,1.997-0.108,3.59v7.585c0,2.996-0.594,4.832-1.863,5.966
		c-1.269,1.188-3.104,1.565-4.75,1.565c-1.566,0-3.293-0.378-4.346-1.08l0.594-1.809c0.864,0.54,2.213,1.026,3.833,1.026
		c2.429,0,4.21-1.269,4.21-4.562v-1.457h-0.054c-0.729,1.215-2.132,2.187-4.157,2.187c-3.239,0-5.561-2.754-5.561-6.37
		c0-4.428,2.888-6.938,5.884-6.938c2.268,0,3.509,1.188,4.076,2.267h0.054l0.108-1.97H209.531L209.531,65.587z M207.074,70.742
		c0-0.405-0.027-0.756-0.135-1.08c-0.432-1.376-1.593-2.51-3.32-2.51c-2.267,0-3.887,1.916-3.887,4.939
		c0,2.564,1.295,4.697,3.86,4.697c1.458,0,2.78-0.918,3.293-2.43c0.135-0.404,0.189-0.863,0.189-1.269V70.742z"/>
	<path fill="#FFFFFF" d="M219.091,69.852c0-1.674-0.054-3.023-0.108-4.265h2.133l0.108,2.24h0.054
		c0.972-1.593,2.51-2.537,4.643-2.537c3.158,0,5.533,2.672,5.533,6.64c0,4.697-2.861,7.019-5.938,7.019
		c-1.728,0-3.239-0.756-4.021-2.052h-0.054v7.1h-2.348V69.852H219.091z M221.439,73.334c0,0.351,0.054,0.675,0.108,0.972
		c0.432,1.646,1.863,2.78,3.563,2.78c2.51,0,3.968-2.052,3.968-5.048c0-2.618-1.377-4.859-3.887-4.859
		c-1.62,0-3.131,1.161-3.59,2.942c-0.081,0.297-0.162,0.648-0.162,0.973V73.334L221.439,73.334z"/>
	<path fill="#FFFFFF" d="M234.454,59.486h2.375v19.165h-2.375V59.486z"/>
	<path fill="#FFFFFF" d="M248.059,78.651l-0.188-1.646h-0.081c-0.729,1.025-2.133,1.943-3.995,1.943
		c-2.646,0-3.995-1.862-3.995-3.752c0-3.158,2.808-4.886,7.855-4.859v-0.27c0-1.08-0.297-3.023-2.97-3.023
		c-1.214,0-2.483,0.378-3.4,0.972l-0.54-1.565c1.079-0.701,2.646-1.16,4.292-1.16c3.995,0,4.967,2.726,4.967,5.344v4.887
		c0,1.134,0.054,2.24,0.216,3.131h-2.161V78.651z M247.708,71.984c-2.591-0.055-5.533,0.404-5.533,2.942
		c0,1.538,1.025,2.267,2.24,2.267c1.7,0,2.78-1.079,3.158-2.186c0.081-0.243,0.135-0.514,0.135-0.756V71.984z"/>
	<path fill="#FFFFFF" d="M263.152,78.165c-0.621,0.324-1.998,0.756-3.752,0.756c-3.942,0-6.506-2.672-6.506-6.667
		c0-4.022,2.754-6.938,7.018-6.938c1.404,0,2.646,0.352,3.293,0.675l-0.539,1.836c-0.566-0.324-1.457-0.621-2.754-0.621
		c-2.996,0-4.616,2.214-4.616,4.94c0,3.022,1.944,4.886,4.536,4.886c1.35,0,2.24-0.352,2.914-0.648L263.152,78.165z"/>
	<path fill="#FFFFFF" d="M267.096,72.551c0.055,3.212,2.105,4.535,4.482,4.535c1.699,0,2.725-0.297,3.615-0.675l0.406,1.7
		c-0.839,0.378-2.269,0.81-4.347,0.81c-4.022,0-6.426-2.645-6.426-6.586s2.321-7.045,6.129-7.045c4.265,0,5.397,3.752,5.397,6.154
		c0,0.485-0.055,0.863-0.082,1.106L267.096,72.551L267.096,72.551z M274.061,70.851c0.027-1.512-0.621-3.86-3.293-3.86
		c-2.401,0-3.455,2.214-3.645,3.86H274.061z"/>
	<path fill="#FFFFFF" d="M285.023,59.486h2.375v8.151h0.055c0.377-0.675,0.971-1.269,1.701-1.673
		c0.701-0.405,1.537-0.675,2.428-0.675c1.756,0,4.562,1.079,4.562,5.587v7.774h-2.375v-7.504c0-2.105-0.783-3.888-3.023-3.888
		c-1.539,0-2.754,1.08-3.186,2.376c-0.136,0.323-0.162,0.675-0.162,1.134v7.882h-2.375V59.486z"/>
	<path fill="#FFFFFF" d="M311.832,72.011c0,4.832-3.348,6.938-6.506,6.938c-3.535,0-6.262-2.591-6.262-6.721
		c0-4.373,2.86-6.938,6.479-6.938C309.295,65.29,311.832,68.016,311.832,72.011z M301.467,72.146c0,2.861,1.646,5.021,3.969,5.021
		c2.267,0,3.967-2.133,3.967-5.075c0-2.213-1.106-5.021-3.913-5.021C302.682,67.071,301.467,69.662,301.467,72.146z"/>
	<path fill="#FFFFFF" d="M314.832,59.486h2.375v19.165h-2.375V59.486z"/>
	<path fill="#FFFFFF" d="M332.486,59.486v15.791c0,1.16,0.027,2.483,0.106,3.374h-2.131l-0.108-2.268H330.3
		c-0.729,1.458-2.321,2.564-4.455,2.564c-3.157,0-5.588-2.672-5.588-6.641c-0.024-4.346,2.675-7.018,5.856-7.018
		c1.998,0,3.349,0.944,3.941,1.997h0.055v-7.801h2.377V59.486z M330.111,70.904c0-0.297-0.027-0.702-0.107-0.999
		c-0.352-1.512-1.646-2.753-3.43-2.753c-2.455,0-3.914,2.159-3.914,5.048c0,2.646,1.297,4.832,3.861,4.832
		c1.592,0,3.049-1.053,3.481-2.835c0.08-0.323,0.106-0.647,0.106-1.025v-2.268H330.111z"/>
	<path fill="#FFFFFF" d="M337.754,72.551c0.053,3.212,2.105,4.535,4.48,4.535c1.701,0,2.727-0.297,3.617-0.675l0.403,1.7
		c-0.836,0.378-2.269,0.81-4.346,0.81c-4.021,0-6.425-2.645-6.425-6.586s2.32-7.045,6.127-7.045c4.267,0,5.398,3.752,5.398,6.154
		c0,0.485-0.053,0.863-0.08,1.106L337.754,72.551L337.754,72.551z M344.717,70.851c0.027-1.512-0.619-3.86-3.293-3.86
		c-2.402,0-3.455,2.214-3.643,3.86H344.717z"/>
	<path fill="#FFFFFF" d="M349.959,69.662c0-1.538-0.027-2.86-0.109-4.075h2.08l0.08,2.564h0.107
		c0.594-1.755,2.025-2.861,3.617-2.861c0.27,0,0.459,0.026,0.676,0.081v2.24c-0.244-0.055-0.486-0.081-0.811-0.081
		c-1.675,0-2.861,1.269-3.187,3.05c-0.054,0.324-0.106,0.702-0.106,1.107v6.964h-2.349L349.959,69.662L349.959,69.662z"/>
	<path fill="#FFFFFF" d="M355.816,81.972c0.594-1.593,1.324-4.481,1.621-6.451l2.645-0.271c-0.621,2.295-1.809,5.291-2.564,6.56
		L355.816,81.972z"/>
	<path fill="#FFFFFF" d="M94.163,94.234v3.752h3.401v1.809h-3.401v7.045c0,1.619,0.459,2.537,1.782,2.537
		c0.621,0,1.08-0.081,1.376-0.162l0.108,1.782c-0.458,0.188-1.188,0.323-2.105,0.323c-1.106,0-1.997-0.352-2.564-0.998
		c-0.675-0.702-0.918-1.863-0.918-3.401v-7.126h-2.024v-1.809h2.024v-3.131L94.163,94.234z"/>
	<path fill="#FFFFFF" d="M100.239,91.886h2.375v8.152h0.054c0.378-0.675,0.972-1.269,1.701-1.674
		c0.702-0.405,1.539-0.675,2.429-0.675c1.754,0,4.562,1.08,4.562,5.588v7.773h-2.375v-7.504c0-2.105-0.783-3.887-3.023-3.887
		c-1.539,0-2.753,1.079-3.185,2.375c-0.135,0.324-0.162,0.675-0.162,1.134v7.882h-2.375V91.886H100.239z"/>
	<path fill="#FFFFFF" d="M116.546,104.95c0.054,3.212,2.105,4.534,4.481,4.534c1.701,0,2.726-0.297,3.617-0.674l0.405,1.699
		c-0.837,0.379-2.268,0.811-4.346,0.811c-4.022,0-6.424-2.646-6.424-6.586s2.321-7.045,6.127-7.045c4.265,0,5.398,3.752,5.398,6.154
		c0,0.485-0.054,0.863-0.081,1.106L116.546,104.95L116.546,104.95z M123.511,103.25c0.027-1.512-0.621-3.86-3.293-3.86
		c-2.402,0-3.455,2.214-3.644,3.86H123.511z"/>
	<path fill="#FFFFFF" d="M143.787,110.564c-0.621,0.324-1.998,0.756-3.752,0.756c-3.941,0-6.505-2.672-6.505-6.668
		c0-4.021,2.753-6.937,7.018-6.937c1.403,0,2.645,0.351,3.293,0.675l-0.54,1.835c-0.567-0.324-1.458-0.621-2.753-0.621
		c-2.996,0-4.616,2.214-4.616,4.94c0,3.021,1.943,4.887,4.535,4.887c1.35,0,2.24-0.353,2.915-0.648L143.787,110.564z"/>
	<path fill="#FFFFFF" d="M158.231,104.41c0,4.832-3.347,6.938-6.505,6.938c-3.536,0-6.262-2.591-6.262-6.721
		c0-4.373,2.861-6.938,6.478-6.938C155.693,97.689,158.231,100.416,158.231,104.41z M147.866,104.546
		c0,2.861,1.646,5.021,3.968,5.021c2.268,0,3.968-2.133,3.968-5.074c0-2.213-1.106-5.021-3.914-5.021
		C149.08,99.471,147.866,102.062,147.866,104.546z"/>
	<path fill="#FFFFFF" d="M161.231,102.062c0-1.539-0.027-2.861-0.108-4.076h2.079l0.081,2.564h0.108
		c0.594-1.755,2.024-2.861,3.617-2.861c0.27,0,0.458,0.027,0.675,0.081v2.24c-0.243-0.054-0.486-0.081-0.81-0.081
		c-1.673,0-2.861,1.269-3.185,3.05c-0.054,0.324-0.108,0.703-0.108,1.107v6.964h-2.348L161.231,102.062L161.231,102.062z"/>
	<path fill="#FFFFFF" d="M170.168,102.062c0-1.539-0.027-2.861-0.108-4.076h2.079l0.081,2.564h0.108
		c0.594-1.755,2.024-2.861,3.617-2.861c0.27,0,0.458,0.027,0.675,0.081v2.24c-0.243-0.054-0.486-0.081-0.81-0.081
		c-1.673,0-2.861,1.269-3.185,3.05c-0.054,0.324-0.108,0.703-0.108,1.107v6.964h-2.348L170.168,102.062L170.168,102.062z"/>
	<path fill="#FFFFFF" d="M180.049,104.95c0.054,3.212,2.105,4.534,4.481,4.534c1.701,0,2.726-0.297,3.617-0.674l0.405,1.699
		c-0.837,0.379-2.268,0.811-4.346,0.811c-4.022,0-6.424-2.646-6.424-6.586s2.321-7.045,6.127-7.045c4.265,0,5.398,3.752,5.398,6.154
		c0,0.485-0.054,0.863-0.081,1.106L180.049,104.95L180.049,104.95z M187.014,103.25c0.027-1.512-0.621-3.86-3.293-3.86
		c-2.402,0-3.455,2.214-3.644,3.86H187.014z"/>
	<path fill="#FFFFFF" d="M201.566,110.564c-0.621,0.324-1.998,0.756-3.752,0.756c-3.941,0-6.505-2.672-6.505-6.668
		c0-4.021,2.753-6.937,7.018-6.937c1.403,0,2.645,0.351,3.293,0.675l-0.54,1.835c-0.567-0.324-1.458-0.621-2.753-0.621
		c-2.996,0-4.616,2.214-4.616,4.94c0,3.021,1.943,4.887,4.535,4.887c1.35,0,2.24-0.353,2.915-0.648L201.566,110.564z"/>
	<path fill="#FFFFFF" d="M207.562,94.234v3.752h3.401v1.809h-3.401v7.045c0,1.619,0.459,2.537,1.782,2.537
		c0.621,0,1.08-0.081,1.376-0.162l0.108,1.782c-0.458,0.188-1.188,0.323-2.105,0.323c-1.106,0-1.997-0.352-2.564-0.998
		c-0.675-0.702-0.918-1.863-0.918-3.401v-7.126h-2.024v-1.809h2.024v-3.131L207.562,94.234z"/>
	<path fill="#FFFFFF" d="M222.006,94.315c0.027,0.81-0.567,1.457-1.512,1.457c-0.836,0-1.431-0.647-1.431-1.457
		c0-0.837,0.621-1.484,1.485-1.484C221.439,92.831,222.006,93.479,222.006,94.315z M219.361,111.051V97.986h2.375v13.064
		L219.361,111.051L219.361,111.051z"/>
	<path fill="#FFFFFF" d="M225.679,101.522c0-1.35-0.027-2.456-0.108-3.536h2.079l0.108,2.105h0.081
		c0.729-1.242,1.943-2.402,4.103-2.402c1.781,0,3.131,1.08,3.698,2.618h0.054c0.405-0.729,0.918-1.296,1.458-1.7
		c0.782-0.594,1.646-0.918,2.888-0.918c1.728,0,4.292,1.134,4.292,5.668v7.693h-2.321v-7.396c0-2.51-0.918-4.021-2.834-4.021
		c-1.35,0-2.402,0.999-2.808,2.159c-0.108,0.324-0.189,0.756-0.189,1.188v8.071h-2.321v-7.828c0-2.078-0.917-3.59-2.726-3.59
		c-1.484,0-2.564,1.188-2.942,2.375c-0.135,0.352-0.189,0.756-0.189,1.161v7.882h-2.321v-9.529H225.679z"/>
	<path fill="#FFFFFF" d="M259.453,97.986c-0.055,0.944-0.109,1.997-0.109,3.59v7.585c0,2.996-0.594,4.832-1.861,5.966
		c-1.27,1.188-3.104,1.564-4.75,1.564c-1.565,0-3.293-0.377-4.346-1.08l0.594-1.809c0.864,0.54,2.214,1.026,3.833,1.026
		c2.43,0,4.21-1.269,4.21-4.562v-1.457h-0.055c-0.729,1.215-2.132,2.187-4.157,2.187c-3.239,0-5.561-2.754-5.561-6.37
		c0-4.428,2.889-6.938,5.885-6.938c2.268,0,3.508,1.188,4.077,2.268h0.053l0.109-1.971H259.453z M256.996,103.142
		c0-0.404-0.027-0.756-0.135-1.079c-0.432-1.377-1.592-2.511-3.32-2.511c-2.268,0-3.888,1.917-3.888,4.939
		c0,2.563,1.296,4.696,3.86,4.696c1.458,0,2.781-0.918,3.292-2.43c0.135-0.404,0.189-0.863,0.189-1.27v-2.346H256.996z"/>
	<path fill="#FFFFFF" d="M271.658,94.315c0.027,0.81-0.566,1.457-1.512,1.457c-0.836,0-1.431-0.647-1.431-1.457
		c0-0.837,0.619-1.484,1.484-1.484C271.092,92.831,271.658,93.479,271.658,94.315z M269.014,111.051V97.986h2.375v13.064
		L269.014,111.051L269.014,111.051z"/>
	<path fill="#FFFFFF" d="M275.008,108.621c0.701,0.459,1.943,0.945,3.131,0.945c1.728,0,2.537-0.864,2.537-1.943
		c0-1.135-0.674-1.755-2.43-2.402c-2.348-0.837-3.455-2.133-3.455-3.698c0-2.105,1.701-3.833,4.508-3.833
		c1.322,0,2.484,0.378,3.213,0.81l-0.594,1.728c-0.514-0.324-1.459-0.756-2.672-0.756c-1.404,0-2.188,0.81-2.188,1.781
		c0,1.08,0.782,1.566,2.483,2.214c2.269,0.863,3.429,1.997,3.429,3.941c0,2.294-1.781,3.912-4.888,3.912
		c-1.43,0-2.752-0.35-3.67-0.891L275.008,108.621z"/>
	<path fill="#FFFFFF" d="M303.568,104.41c0,4.832-3.346,6.938-6.504,6.938c-3.537,0-6.265-2.591-6.265-6.721
		c0-4.373,2.861-6.938,6.479-6.938C301.031,97.689,303.568,100.416,303.568,104.41z M293.203,104.546
		c0,2.861,1.646,5.021,3.969,5.021c2.268,0,3.969-2.133,3.969-5.074c0-2.213-1.106-5.021-3.914-5.021
		C294.418,99.471,293.203,102.062,293.203,104.546z"/>
	<path fill="#FFFFFF" d="M306.57,101.522c0-1.35-0.027-2.456-0.109-3.536h2.105l0.135,2.159h0.055
		c0.648-1.241,2.16-2.456,4.318-2.456c1.809,0,4.617,1.08,4.617,5.561v7.801h-2.377v-7.531c0-2.104-0.781-3.858-3.021-3.858
		c-1.566,0-2.781,1.106-3.186,2.429c-0.109,0.297-0.162,0.702-0.162,1.107v7.854h-2.375V101.522z"/>
	<path fill="#FFFFFF" d="M329.924,94.315c0.025,0.81-0.568,1.457-1.512,1.457c-0.838,0-1.432-0.647-1.432-1.457
		c0-0.837,0.621-1.484,1.483-1.484C329.355,92.831,329.924,93.479,329.924,94.315z M327.277,111.051V97.986h2.375v13.064
		L327.277,111.051L327.277,111.051z"/>
	<path fill="#FFFFFF" d="M336.457,94.234v3.752h3.4v1.809h-3.4v7.045c0,1.619,0.459,2.537,1.781,2.537
		c0.621,0,1.08-0.081,1.377-0.162l0.107,1.782c-0.459,0.188-1.188,0.323-2.105,0.323c-1.105,0-1.996-0.352-2.564-0.998
		c-0.674-0.702-0.916-1.863-0.916-3.401v-7.126h-2.025v-1.809h2.025v-3.131L336.457,94.234z"/>
	<path fill="#FFFFFF" d="M342.209,108.621c0.701,0.459,1.943,0.945,3.131,0.945c1.727,0,2.537-0.864,2.537-1.943
		c0-1.135-0.674-1.755-2.43-2.402c-2.348-0.837-3.455-2.133-3.455-3.698c0-2.105,1.701-3.833,4.508-3.833
		c1.322,0,2.484,0.378,3.213,0.81l-0.594,1.728c-0.514-0.324-1.459-0.756-2.672-0.756c-1.404,0-2.188,0.81-2.188,1.781
		c0,1.08,0.782,1.566,2.483,2.214c2.269,0.863,3.428,1.997,3.428,3.941c0,2.294-1.78,3.912-4.887,3.912
		c-1.431,0-2.752-0.35-3.67-0.891L342.209,108.621z"/>
	<path fill="#FFFFFF" d="M359.893,97.986l1.729,6.641c0.377,1.457,0.729,2.807,0.971,4.156h0.082
		c0.298-1.322,0.729-2.727,1.16-4.131l2.133-6.667h1.998l2.023,6.532c0.485,1.565,0.862,2.942,1.159,4.266h0.082
		c0.215-1.322,0.566-2.699,0.998-4.237l1.863-6.56h2.348l-4.211,13.064h-2.158l-1.997-6.235c-0.459-1.458-0.839-2.752-1.16-4.292
		h-0.056c-0.323,1.565-0.729,2.915-1.188,4.319l-2.105,6.208h-2.159l-3.939-13.064H359.893z"/>
	<path fill="#FFFFFF" d="M385.945,111.051l-0.188-1.646h-0.082c-0.729,1.025-2.133,1.943-3.993,1.943
		c-2.646,0-3.996-1.861-3.996-3.752c0-3.158,2.809-4.886,7.854-4.858v-0.271c0-1.079-0.297-3.022-2.969-3.022
		c-1.216,0-2.484,0.378-3.4,0.972l-0.541-1.566c1.08-0.701,2.646-1.16,4.293-1.16c3.994,0,4.968,2.727,4.968,5.345v4.886
		c0,1.135,0.053,2.24,0.215,3.131h-2.16V111.051z M385.596,104.384c-2.592-0.055-5.533,0.404-5.533,2.942
		c0,1.538,1.025,2.267,2.24,2.267c1.699,0,2.779-1.079,3.158-2.186c0.08-0.243,0.135-0.515,0.135-0.757V104.384z"/>
	<path fill="#FFFFFF" d="M392.373,97.986l2.861,7.72c0.297,0.864,0.621,1.89,0.838,2.673h0.053c0.244-0.783,0.514-1.781,0.838-2.727
		l2.592-7.667h2.511l-3.562,9.312c-1.701,4.479-2.86,6.775-4.481,8.179c-1.16,1.025-2.32,1.432-2.914,1.539l-0.594-1.998
		c0.594-0.188,1.377-0.565,2.077-1.16c0.648-0.514,1.457-1.431,1.998-2.646c0.106-0.243,0.188-0.433,0.188-0.567
		s-0.053-0.322-0.162-0.619l-4.83-12.04H392.373z"/>
	<path fill="#FFFFFF" d="M402.607,109.646c0-0.998,0.674-1.701,1.618-1.701c0.945,0,1.595,0.703,1.595,1.701
		c0,0.973-0.621,1.701-1.621,1.701C403.256,111.348,402.607,110.619,402.607,109.646z"/>
	<path fill="#FFFFFF" d="M408.195,109.646c0-0.998,0.676-1.701,1.621-1.701c0.942,0,1.592,0.703,1.592,1.701
		c0,0.973-0.621,1.701-1.619,1.701C408.844,111.348,408.195,110.619,408.195,109.646z"/>
	<path fill="#FFFFFF" d="M413.785,109.646c0-0.998,0.674-1.701,1.619-1.701c0.944,0,1.594,0.703,1.594,1.701
		c0,0.973-0.621,1.701-1.621,1.701C414.434,111.348,413.785,110.619,413.785,109.646z"/>
	<path fill="#FFFFFF" d="M419.373,109.646c0-0.998,0.676-1.701,1.621-1.701c0.942,0,1.592,0.703,1.592,1.701
		c0,0.973-0.621,1.701-1.619,1.701C420.021,111.348,419.373,110.619,419.373,109.646z"/>
	<path fill="#FFFFFF" d="M91.302,134.65c0-1.674-0.054-3.022-0.108-4.264h2.133l0.108,2.239h0.054
		c0.972-1.593,2.51-2.537,4.643-2.537c3.158,0,5.533,2.673,5.533,6.64c0,4.697-2.861,7.02-5.938,7.02
		c-1.728,0-3.239-0.756-4.021-2.053H93.65v7.101h-2.348V134.65z M93.65,138.134c0,0.351,0.054,0.675,0.108,0.972
		c0.432,1.646,1.863,2.781,3.563,2.781c2.51,0,3.968-2.053,3.968-5.049c0-2.617-1.377-4.857-3.887-4.857
		c-1.62,0-3.131,1.16-3.59,2.941c-0.081,0.297-0.162,0.646-0.162,0.973V138.134z"/>
	<path fill="#FFFFFF" d="M106.665,134.463c0-1.539-0.027-2.861-0.108-4.076h2.079l0.081,2.564h0.108
		c0.594-1.756,2.024-2.861,3.617-2.861c0.27,0,0.458,0.027,0.675,0.081v2.24c-0.243-0.054-0.486-0.081-0.81-0.081
		c-1.673,0-2.861,1.27-3.185,3.05c-0.054,0.324-0.108,0.702-0.108,1.106v6.965h-2.348L106.665,134.463L106.665,134.463z"/>
	<path fill="#FFFFFF" d="M127.047,136.811c0,4.832-3.347,6.938-6.505,6.938c-3.536,0-6.262-2.591-6.262-6.722
		c0-4.373,2.861-6.938,6.478-6.938C124.509,130.09,127.047,132.816,127.047,136.811z M116.682,136.945
		c0,2.861,1.646,5.021,3.968,5.021c2.268,0,3.968-2.133,3.968-5.074c0-2.213-1.106-5.021-3.914-5.021
		S116.682,134.463,116.682,136.945z"/>
	<path fill="#FFFFFF" d="M129.938,143.451c0.054-0.891,0.108-2.215,0.108-3.374v-15.791h2.348v8.206h0.054
		c0.836-1.458,2.348-2.402,4.454-2.402c3.239,0,5.534,2.699,5.506,6.667c0,4.671-2.942,6.991-5.857,6.991
		c-1.889,0-3.401-0.729-4.373-2.456h-0.081l-0.108,2.159H129.938L129.938,143.451z M132.395,138.215
		c0,0.297,0.054,0.594,0.108,0.863c0.459,1.646,1.835,2.779,3.563,2.779c2.483,0,3.968-2.023,3.968-5.021
		c0-2.618-1.35-4.858-3.887-4.858c-1.62,0-3.131,1.106-3.617,2.916c-0.054,0.27-0.135,0.594-0.135,0.972V138.215L132.395,138.215z"
		/>
	<path fill="#FFFFFF" d="M152.643,143.451l-0.189-1.646h-0.081c-0.729,1.025-2.132,1.943-3.995,1.943
		c-2.645,0-3.995-1.861-3.995-3.752c0-3.158,2.807-4.887,7.855-4.857v-0.271c0-1.079-0.297-3.021-2.969-3.021
		c-1.215,0-2.483,0.377-3.401,0.971l-0.54-1.565c1.08-0.701,2.645-1.16,4.292-1.16c3.995,0,4.967,2.728,4.967,5.345v4.887
		c0,1.134,0.054,2.24,0.216,3.131h-2.16V143.451z M152.292,136.784c-2.591-0.056-5.533,0.403-5.533,2.942
		c0,1.537,1.025,2.267,2.24,2.267c1.701,0,2.78-1.079,3.158-2.187c0.081-0.242,0.135-0.514,0.135-0.756V136.784z"/>
	<path fill="#FFFFFF" d="M158.315,143.451c0.054-0.891,0.108-2.215,0.108-3.374v-15.791h2.348v8.206h0.054
		c0.836-1.458,2.348-2.402,4.454-2.402c3.239,0,5.534,2.699,5.506,6.667c0,4.671-2.942,6.991-5.857,6.991
		c-1.889,0-3.401-0.729-4.373-2.456h-0.081l-0.108,2.159H158.315L158.315,143.451z M160.771,138.215
		c0,0.297,0.054,0.594,0.108,0.863c0.459,1.646,1.835,2.779,3.563,2.779c2.483,0,3.968-2.023,3.968-5.021
		c0-2.618-1.35-4.858-3.887-4.858c-1.62,0-3.131,1.106-3.617,2.916c-0.054,0.27-0.135,0.594-0.135,0.972V138.215L160.771,138.215z"
		/>
	<path fill="#FFFFFF" d="M173.786,124.286h2.375v19.165h-2.375V124.286z"/>
	<path fill="#FFFFFF" d="M181.021,130.387l2.861,7.721c0.297,0.863,0.621,1.89,0.837,2.672h0.054
		c0.243-0.782,0.513-1.781,0.836-2.727l2.591-7.666h2.51l-3.563,9.312c-1.7,4.48-2.861,6.775-4.48,8.179
		c-1.161,1.024-2.322,1.431-2.916,1.539l-0.594-1.998c0.594-0.188,1.376-0.565,2.079-1.16c0.648-0.514,1.458-1.431,1.998-2.646
		c0.108-0.243,0.189-0.432,0.189-0.567c0-0.135-0.054-0.323-0.162-0.62l-4.832-12.039H181.021z"/>
	<path fill="#FFFFFF" d="M198.274,141.021c0.702,0.459,1.943,0.944,3.131,0.944c1.728,0,2.537-0.864,2.537-1.942
		c0-1.135-0.675-1.756-2.429-2.402c-2.349-0.837-3.455-2.133-3.455-3.698c0-2.104,1.701-3.833,4.508-3.833
		c1.323,0,2.483,0.379,3.212,0.811l-0.594,1.728c-0.513-0.323-1.458-0.756-2.672-0.756c-1.403,0-2.186,0.81-2.186,1.78
		c0,1.08,0.783,1.566,2.483,2.215c2.268,0.863,3.428,1.997,3.428,3.941c0,2.293-1.781,3.912-4.886,3.912
		c-1.431,0-2.753-0.351-3.671-0.891L198.274,141.021z"/>
	<path fill="#FFFFFF" d="M209.29,124.286h2.375v19.165h-2.375V124.286z"/>
	<path fill="#FFFFFF" d="M216.984,137.352c0.054,3.211,2.105,4.535,4.481,4.535c1.701,0,2.726-0.298,3.617-0.676l0.405,1.7
		c-0.837,0.378-2.268,0.81-4.346,0.81c-4.022,0-6.424-2.645-6.424-6.586c0-3.939,2.321-7.045,6.127-7.045
		c4.265,0,5.398,3.752,5.398,6.154c0,0.484-0.054,0.863-0.081,1.105h-9.177V137.352z M223.948,135.65
		c0.027-1.512-0.621-3.86-3.293-3.86c-2.402,0-3.455,2.214-3.644,3.86H223.948z"/>
	<path fill="#FFFFFF" d="M229.188,134.65c0-1.674-0.054-3.022-0.108-4.264h2.133l0.108,2.239h0.054
		c0.972-1.593,2.511-2.537,4.643-2.537c3.158,0,5.534,2.673,5.534,6.64c0,4.697-2.861,7.02-5.938,7.02
		c-1.728,0-3.239-0.756-4.022-2.053h-0.054v7.101h-2.348V134.65H229.188z M231.537,138.134c0,0.351,0.054,0.675,0.108,0.972
		c0.432,1.646,1.863,2.781,3.563,2.781c2.511,0,3.968-2.053,3.968-5.049c0-2.617-1.376-4.857-3.887-4.857
		c-1.619,0-3.131,1.16-3.59,2.941c-0.081,0.297-0.162,0.646-0.162,0.973V138.134L231.537,138.134z"/>
	<path fill="#FFFFFF" d="M247.413,126.635v3.752h3.4v1.809h-3.4v7.046c0,1.618,0.459,2.536,1.781,2.536
		c0.621,0,1.08-0.08,1.377-0.161l0.107,1.782c-0.459,0.188-1.188,0.322-2.105,0.322c-1.106,0-1.997-0.351-2.564-0.998
		c-0.675-0.701-0.917-1.863-0.917-3.4v-7.127h-2.024v-1.809h2.024v-3.131L247.413,126.635z"/>
	<path fill="#FFFFFF" d="M261.857,126.716c0.024,0.81-0.568,1.457-1.512,1.457c-0.839,0-1.433-0.647-1.433-1.457
		c0-0.837,0.621-1.483,1.483-1.483C261.289,125.23,261.857,125.879,261.857,126.716z M259.211,143.451v-13.064h2.375v13.064H259.211
		z"/>
	<path fill="#FFFFFF" d="M265.529,133.923c0-1.35-0.027-2.456-0.107-3.536h2.105l0.135,2.159h0.055
		c0.646-1.241,2.158-2.456,4.318-2.456c1.809,0,4.615,1.08,4.615,5.561v7.802h-2.375v-7.531c0-2.104-0.783-3.858-3.023-3.858
		c-1.566,0-2.779,1.105-3.186,2.429c-0.107,0.297-0.162,0.702-0.162,1.106v7.854h-2.375V133.923z"/>
	<path fill="#FFFFFF" d="M279.947,142.048c0-0.999,0.674-1.7,1.619-1.7c0.944,0,1.594,0.701,1.594,1.7c0,0.972-0.621,1.7-1.621,1.7
		C280.596,143.748,279.947,143.02,279.947,142.048z"/>
	<path fill="#FFFFFF" d="M285.535,142.048c0-0.999,0.676-1.7,1.621-1.7c0.943,0,1.592,0.701,1.592,1.7c0,0.972-0.621,1.7-1.619,1.7
		C286.184,143.748,285.535,143.02,285.535,142.048z"/>
	<path fill="#FFFFFF" d="M291.125,142.048c0-0.999,0.674-1.7,1.619-1.7s1.594,0.701,1.594,1.7c0,0.972-0.621,1.7-1.621,1.7
		C291.773,143.748,291.125,143.02,291.125,142.048z"/>
	<path fill="#FFFFFF" d="M296.713,142.048c0-0.999,0.674-1.7,1.619-1.7s1.594,0.701,1.594,1.7c0,0.972-0.621,1.7-1.621,1.7
		C297.361,143.748,296.713,143.02,296.713,142.048z"/>
	<path fill="#FFFFFF" d="M95.351,171.182l-1.296,4.67H89.79l5.561-18.193h5.398l5.642,18.193h-4.427l-1.404-4.67H95.351
		L95.351,171.182z M99.967,168.104l-1.134-3.858c-0.324-1.08-0.648-2.431-0.918-3.511h-0.054c-0.27,1.08-0.54,2.457-0.837,3.511
		l-1.08,3.858H99.967z"/>
	<path fill="#FFFFFF" d="M123.347,175.014c-1.269,0.432-3.671,1.025-6.073,1.025c-3.32,0-5.723-0.836-7.396-2.456
		c-1.674-1.565-2.591-3.94-2.564-6.612c0.027-6.047,4.427-9.502,10.392-9.502c2.349,0,4.157,0.459,5.048,0.891l-0.864,3.293
		c-0.999-0.432-2.241-0.782-4.238-0.782c-3.428,0-6.02,1.944-6.02,5.885c0,3.752,2.348,5.966,5.722,5.966
		c0.945,0,1.701-0.107,2.025-0.271v-3.806h-2.808v-3.213h6.775L123.347,175.014L123.347,175.014z"/>
	<path fill="#FFFFFF" d="M130.802,171.182l-1.296,4.67h-4.265l5.561-18.193h5.398l5.642,18.193h-4.427l-1.404-4.67H130.802
		L130.802,171.182z M135.417,168.104l-1.134-3.858c-0.324-1.08-0.648-2.431-0.918-3.511h-0.054c-0.27,1.08-0.54,2.457-0.837,3.511
		l-1.08,3.858H135.417z"/>
	<path fill="#FFFFFF" d="M148.406,157.657v18.192h-4.13v-18.192H148.406L148.406,157.657z"/>
	<path fill="#FFFFFF" d="M151.97,175.852v-18.193h4.805l3.779,6.667c1.08,1.917,2.16,4.185,2.969,6.235h0.081
		c-0.27-2.402-0.351-4.858-0.351-7.586v-5.316h3.779v18.193h-4.318l-3.887-7.02c-1.08-1.943-2.268-4.291-3.158-6.424l-0.081,0.027
		c0.108,2.401,0.162,4.965,0.162,7.936v5.479h-3.78V175.852z"/>
</g>
</svg>
